<?xml version="1.0" encoding="UTF-8"?>
<svg xmlns="http://www.w3.org/2000/svg" viewBox="0 0 435.01 418.21">
  <defs>
    <style>
      .cls-1 {
        fill: none;
        stroke: #999;
        stroke-miterlimit: 10;
        stroke-width: 16px;
      }

      .cls-2 {
        fill: #999;
      }
    </style>
  </defs>
  <g id="Bg">
    <polygon class="cls-2" points=".16 0 116.93 0 142.21 139.72 435.01 406.9 435.01 417.37 421.45 417.37 421.18 406.9 11.51 406.9 11.6 417.78 0 417.78 .16 406.9 .16 0"/>
    <path class="cls-2" d="m116.93,0s-21.5,15.64-19.67,51.31c1.67,22.08,18,53.4,54.67,54.91,38.33-2.45,53.5-36.23,54-56.99.67-33.78-19.53-49.23-19.53-49.23"/>
  </g>
  <g id="Logo">
    <path d="m153.63,403.72h0c-9.7,0-17.56-7.97-17.56-17.79,0,0-51.63-294.09,0-325.08,51.63-31,7.86-17.79,17.56-17.79h0c9.7,0,17.56,7.97,17.56,17.79v325.08c0,9.83-7.86,17.79-17.56,17.79Z"/>
    <path d="m125.42,79.99c72.21-16.53,57.48-29.65,57.48-29.65l-23.42-32.35s-106.27,78.53-34.06,62Z"/>
    <path d="m225.91,54.14c73.37-24.78,226.04,13.82,193.7,27.68-32.34,13.86,34.39,50.18,8.88,47.16-25.51-3.02-163.03-80.57-262.35-39.86-99.32,40.71-13.59-10.2,59.78-34.98Z"/>
    <path d="m61.83,208.75c-16.74-33.4,58.49,26.69,105.04-64.98,46.55-91.67,87.32-51.44,43.82,66.88-43.5,118.32-187.31,102.28-187.31,102.28,0,0,55.18-70.78,38.44-104.18Z"/>
    <path d="m34.07,139.8c-83.73,49.13,43.71-66.6,51.99-30.52,8.29,36.08,45.5-59.33,46.15,28.31s1.93-41.65-90.11,43.7c-63.45,35.81,68.75-77.72-8.03-41.5Z"/>
    <path d="m5.68,406.9h215.52c83.36,0,82.73-69.84,0-62.21-82.73,7.64-216.47,60.57-215.52,62.21Z"/>
  </g>
  <g id="BgClip">
    <path class="cls-1" d="m5.8,412.22c23.17-24.23,28.48,10.74,45.98-7.56,17.5-18.29,29.32,14.83,43.51,0s30.27,15.82,45.4,0c15.13-15.82,33.11,12.86,45.4,0,12.3-12.86,33.11,14.83,47.29,0,14.19-14.83,27.9,15.33,42.57,0,14.66-15.33,26.01,14.34,39.73,0,13.72-14.34,28.38,13.84,41.62,0,13.24-13.84,24.59,15.82,39.73,0s31.09,8.28,31.09,8.28"/>
  </g>
</svg>